<?xml version="1.0" encoding="utf-8"?>
<!-- Generator: Adobe Illustrator 22.0.0, SVG Export Plug-In . SVG Version: 6.00 Build 0)  -->
<svg version="1.1" id="Layer_1" xmlns="http://www.w3.org/2000/svg" xmlns:xlink="http://www.w3.org/1999/xlink" x="0px" y="0px"
	 viewBox="0 0 1000 1000" style="enable-background:new 0 0 1000 1000;" xml:space="preserve">
<style type="text/css">
	.st0{fill:#FFFFFF;}
</style>
<path class="st0" d="M772.5,209.4c-6.7,10.4-13.4,18.6-20.9,23.8c-7.5,5.2-17.1,8.2-28.3,8.2c-10.4,0-21.6-3-33.5-9.7
	c-11.9-6.7-25.3-13.4-40.2-21.6c-14.9-8.2-32-15.7-51.4-21.6c-19.4-6.7-41-9.7-65.6-9.7c-42.5,0-73.8,8.9-94.7,26.8
	c-20.9,17.9-31.3,42.5-31.3,73.8c0,19.4,6,35.8,18.6,49.2c12.7,12.7,29.1,23.8,49.2,33.5c20.1,9.7,44,17.9,70.1,26.1
	c26.1,8.2,52.9,16.4,80.5,26.1s53.7,20.9,80.5,33.5c26.1,12.7,49.2,29.8,70.1,49.9c20.1,20.1,36.5,44.7,49.2,73.8
	c12.7,29.1,18.6,63.4,18.6,104.3c0,45.5-8.2,87.2-23.8,126.7c-15.7,39.5-38,73.8-67.8,102.9c-29.8,29.1-66.3,52.2-110.3,69.3
	c-44,17.1-93.2,25.3-148.3,25.3c-30.6,0-61.1-3-93.2-9.7c-31.3-6-61.9-14.9-91.7-26.8c-29.8-11.2-57.4-24.6-83.5-40.2
	c-26.1-15.7-48.4-32.8-67.8-52.2l67.1-105.8c5.2-8.2,11.9-14.2,20.9-19.4s18.6-7.5,29.1-7.5c13.4,0,26.8,4.5,40.2,12.7
	s29.1,17.9,46.2,28.3c17.1,10.4,37.3,19.4,59.6,28.3c22.4,8.2,48.4,12.7,79,12.7c41,0,73-8.9,96.1-26.8c23.1-17.9,34.3-47,34.3-86.5
	c0-23.1-6-41-18.6-55.9c-12.7-14.2-29.1-26.1-49.2-35.8c-20.1-9.7-43.2-17.9-69.3-24.6c-26.1-7.5-52.9-14.9-79.7-23.8
	c-27.6-8.9-53.7-19.4-79.7-32c-26.1-12.7-49.2-29.8-69.3-50.7s-36.5-47-49.2-77.5c-13.4-32.8-20.1-70.8-20.1-116.3
	c0-36.5,7.5-72.3,22.4-107.3S253,117,281.3,90.2c28.3-27.6,64.1-49.2,105.1-65.6C428.9,8.2,475.8,0,529.5,0
	c29.8,0,58.9,2.2,87.2,6.7s55.2,11.9,80.5,20.9s49.2,20.1,71.5,32.8c22.4,12.7,41.7,26.8,59.6,43.2L772.5,209.4z"/>
</svg>
