<?xml version="1.0" encoding="utf-8"?>
<!-- Generator: Adobe Illustrator 22.0.0, SVG Export Plug-In . SVG Version: 6.00 Build 0)  -->
<svg version="1.1" id="Layer_1" xmlns="http://www.w3.org/2000/svg" xmlns:xlink="http://www.w3.org/1999/xlink" x="0px" y="0px"
	 viewBox="0 0 1000 279.4" style="enable-background:new 0 0 1000 279.4;" xml:space="preserve">
<g>
	<g>
		<path d="M0,192.8l83.9-43.5v13.8c0,1.2-0.3,2.3-0.9,3.2s-1.6,1.7-3,2.4l-48.7,24.7c-1.4,0.8-3,1.5-4.6,2s-3.3,1-5.1,1.5
			c1.8,0.4,3.5,0.8,5.1,1.4c1.6,0.6,3.2,1.2,4.6,2L80,224.9c1.4,0.7,2.5,1.6,3,2.5c0.6,0.9,0.9,2,0.9,3.1v13.9L0,200.8V192.8z"/>
		<path d="M184.8,254.5c4.2,0,8-0.2,11.5-0.6c3.5-0.4,6.8-1,9.9-1.8c3.1-0.8,6-1.8,8.8-2.9c2.7-1.1,5.5-2.4,8.2-3.8v-34.3h-24.1
			c-1.4,0-2.5-0.4-3.3-1.2s-1.2-1.8-1.2-2.9v-11.9h47.7v59.6c-3.9,2.8-8,5.3-12.2,7.4c-4.2,2.1-8.7,3.8-13.6,5.3
			c-4.8,1.4-10,2.5-15.4,3.1c-5.5,0.7-11.5,1-17.9,1c-11.3,0-21.6-1.9-31-5.8c-9.4-3.9-17.5-9.3-24.3-16.3s-12.1-15.3-15.9-25.1
			s-5.7-20.5-5.7-32.2c0-11.9,1.9-22.7,5.6-32.4c3.7-9.8,9-18.1,15.9-25.1s15.2-12.4,25-16.2c9.8-3.8,20.8-5.7,32.9-5.7
			c6.1,0,11.9,0.5,17.1,1.4c5.3,0.9,10.2,2.2,14.7,3.9c4.5,1.7,8.7,3.8,12.5,6.2c3.8,2.4,7.4,5.1,10.7,8.2l-6,9.5
			c-1.2,2-2.8,2.9-4.8,2.9c-1.2,0-2.4-0.4-3.8-1.2c-1.8-1-3.8-2.2-6.1-3.7c-2.2-1.4-5-2.8-8.2-4.2c-3.2-1.3-7-2.5-11.4-3.4
			s-9.6-1.4-15.6-1.4c-8.7,0-16.7,1.4-23.7,4.3c-7.1,2.9-13.1,6.9-18.1,12.2c-5,5.3-8.8,11.7-11.5,19.3s-4,16-4,25.4
			c0,9.8,1.4,18.6,4.2,26.3s6.7,14.2,11.8,19.6c5.1,5.4,11.1,9.4,18,12.3C168.8,253,176.4,254.5,184.8,254.5z"/>
		<path d="M339.3,269.7h-8.6c-1.9,0-3.4-0.3-4.6-0.9c-1.2-0.6-1.9-1.8-2.3-3.7l-2.2-10.2c-2.9,2.6-5.7,4.9-8.5,7
			c-2.7,2.1-5.6,3.8-8.7,5.2c-3,1.4-6.3,2.5-9.7,3.2c-3.4,0.7-7.2,1.1-11.4,1.1c-4.3,0-8.3-0.6-12-1.8s-7-3-9.7-5.4
			s-4.9-5.4-6.6-9.1c-1.6-3.7-2.4-8-2.4-13c0-4.3,1.2-8.5,3.6-12.6c2.4-4,6.2-7.6,11.5-10.7c5.3-3.1,12.3-5.7,20.9-7.7
			s19.1-3,31.5-3v-8.6c0-8.6-1.8-15.1-5.5-19.5c-3.6-4.4-9.1-6.6-16.2-6.6c-4.7,0-8.7,0.6-11.9,1.8c-3.2,1.2-6,2.5-8.3,4
			s-4.4,2.8-6.1,4s-3.4,1.8-5,1.8c-1.3,0-2.4-0.3-3.4-1s-1.8-1.5-2.3-2.5l-3.5-6.2c6.1-5.9,12.6-10.2,19.6-13.1
			c7-2.9,14.8-4.3,23.3-4.3c6.1,0,11.6,1,16.4,3s8.8,4.8,12,8.5c3.3,3.6,5.7,8,7.4,13.1c1.7,5.1,2.5,10.8,2.5,16.9v70.3H339.3z
			 M289.2,257.9c3.4,0,6.5-0.3,9.3-1s5.5-1.7,8-2.9c2.5-1.3,4.9-2.8,7.2-4.6c2.3-1.8,4.5-3.9,6.7-6.2v-22.7
			c-8.9,0-16.4,0.6-22.7,1.7c-6.2,1.1-11.3,2.6-15.2,4.4c-3.9,1.8-6.7,4-8.5,6.4c-1.8,2.5-2.7,5.2-2.7,8.3c0,2.9,0.5,5.4,1.4,7.5
			s2.2,3.8,3.8,5.2c1.6,1.3,3.5,2.3,5.6,2.9C284.3,257.6,286.7,257.9,289.2,257.9z"/>
		<path d="M355.6,269.7V159.9h11.1c2.1,0,3.5,0.4,4.3,1.2s1.3,2.2,1.6,4.1l1.3,17.1c3.8-7.7,8.4-13.6,13.9-17.9
			c5.5-4.3,12-6.4,19.5-6.4c3,0,5.8,0.3,8.2,1c2.5,0.7,4.7,1.6,6.8,2.9l-2.5,14.4c-0.5,1.8-1.6,2.7-3.4,2.7c-1,0-2.6-0.3-4.7-1
			s-5-1-8.8-1c-6.7,0-12.3,2-16.9,5.9c-4.5,3.9-8.3,9.6-11.3,17v69.9h-19.1V269.7z"/>
		<path d="M512,219.1c0.8,1.9,1.5,3.8,2.2,5.8c0.7-2,1.5-4,2.3-5.8s1.7-3.7,2.7-5.6l52.6-95.5c0.9-1.7,1.9-2.7,2.9-3
			c1-0.4,2.5-0.5,4.3-0.5h15.5v155.3h-18.4V155.6c0-1.5,0-3.1,0.1-4.9c0.1-1.7,0.2-3.5,0.3-5.3l-53.2,97.1c-1.8,3.3-4.3,4.9-7.6,4.9
			h-3c-3.3,0-5.8-1.6-7.6-4.9L450.7,145c0.2,1.9,0.4,3.7,0.5,5.5s0.2,3.5,0.2,5v114.1H433V114.4h15.5c1.9,0,3.3,0.2,4.3,0.5
			c1,0.4,2,1.4,2.9,3l53.7,95.6C510.4,215.3,511.3,217.1,512,219.1z"/>
		<path d="M697,269.7h-8.6c-1.9,0-3.4-0.3-4.6-0.9c-1.2-0.6-1.9-1.8-2.3-3.7l-2.2-10.2c-2.9,2.6-5.7,4.9-8.5,7
			c-2.7,2.1-5.6,3.8-8.7,5.2c-3,1.4-6.3,2.5-9.7,3.2s-7.2,1.1-11.4,1.1c-4.3,0-8.3-0.6-12-1.8s-7-3-9.7-5.4s-4.9-5.4-6.6-9.1
			c-1.6-3.7-2.4-8-2.4-13c0-4.3,1.2-8.5,3.6-12.6c2.4-4,6.2-7.6,11.5-10.7c5.3-3.1,12.3-5.7,20.9-7.7c8.6-2,19.1-3,31.5-3v-8.6
			c0-8.6-1.8-15.1-5.5-19.5c-3.6-4.4-9.1-6.6-16.2-6.6c-4.7,0-8.7,0.6-11.9,1.8s-6,2.5-8.3,4c-2.4,1.5-4.4,2.8-6.1,4
			c-1.7,1.2-3.4,1.8-5,1.8c-1.3,0-2.4-0.3-3.4-1s-1.8-1.5-2.3-2.5l-3.5-6.2c6.1-5.9,12.6-10.2,19.6-13.1c7-2.9,14.8-4.3,23.3-4.3
			c6.1,0,11.6,1,16.4,3c4.8,2,8.8,4.8,12,8.5c3.3,3.6,5.7,8,7.4,13.1s2.5,10.8,2.5,16.9v70.3H697z M646.9,257.9c3.4,0,6.5-0.3,9.3-1
			s5.5-1.7,8-2.9c2.5-1.3,4.9-2.8,7.2-4.6s4.5-3.9,6.7-6.2v-22.7c-8.9,0-16.4,0.6-22.7,1.7c-6.2,1.1-11.3,2.6-15.2,4.4
			c-3.9,1.8-6.7,4-8.5,6.4c-1.8,2.5-2.7,5.2-2.7,8.3c0,2.9,0.5,5.4,1.4,7.5s2.2,3.8,3.8,5.2c1.6,1.3,3.5,2.3,5.6,2.9
			C642.1,257.6,644.4,257.9,646.9,257.9z"/>
		<path d="M739,213.5l-37-53.6h18.5c1.6,0,2.7,0.3,3.5,0.8c0.7,0.5,1.4,1.2,2,2.2l26.9,41.2c0.7-2,1.6-4,2.8-6.1l23.6-34.7
			c0.7-1,1.4-1.8,2.2-2.4c0.7-0.6,1.6-0.9,2.7-0.9H802l-37,52.5l38.5,57.3H785c-1.6,0-2.8-0.4-3.7-1.2s-1.6-1.8-2.2-2.8l-27.6-43
			c-0.5,2.1-1.3,4-2.3,5.6l-25.6,37.4c-0.7,1-1.5,1.9-2.3,2.8c-0.8,0.8-2,1.2-3.4,1.2h-17.2L739,213.5z"/>
		<path d="M840,272c-1,2.5-2.5,4.4-4.5,5.6c-2,1.2-4,1.8-6.1,1.8h-8.1l65.1-162.3c0.9-2.3,2.3-4.1,4-5.3c1.7-1.2,3.8-1.8,6.2-1.8
			h8.1L840,272z"/>
		<path d="M916.2,244.4v-13.9c0-1.2,0.3-2.2,0.9-3.1c0.6-0.9,1.6-1.8,3-2.5l48.7-24.6c1.4-0.7,2.9-1.4,4.5-2s3.2-1,5-1.4
			c-1.8-0.4-3.5-0.9-5-1.5c-1.6-0.5-3.1-1.2-4.5-2l-48.7-24.7c-1.4-0.7-2.5-1.5-3-2.4c-0.6-0.9-0.9-2-0.9-3.2v-13.8l83.8,43.5v8
			L916.2,244.4z"/>
	</g>
	<g>
		<path d="M401.6,12.3c-0.3,0.5-0.6,0.9-1,1.1c-0.3,0.3-0.8,0.4-1.3,0.4c-0.6,0-1.2-0.3-2-0.9s-1.7-1.2-2.9-1.9
			c-1.2-0.7-2.5-1.3-4.2-1.9c-1.6-0.6-3.6-0.9-5.9-0.9c-2.2,0-4.1,0.3-5.8,0.9c-1.7,0.6-3.1,1.4-4.2,2.4s-2,2.2-2.5,3.5
			c-0.6,1.4-0.9,2.8-0.9,4.4c0,2,0.5,3.7,1.5,5s2.3,2.5,3.9,3.4s3.5,1.8,5.5,2.4c2.1,0.7,4.2,1.4,6.3,2.1c2.2,0.7,4.3,1.6,6.3,2.5
			c2.1,0.9,3.9,2.1,5.5,3.5s2.9,3.1,3.9,5.2c1,2,1.5,4.6,1.5,7.5c0,3.2-0.5,6.1-1.6,8.9s-2.6,5.2-4.7,7.2s-4.6,3.7-7.6,4.8
			c-3,1.2-6.4,1.8-10.2,1.8c-4.7,0-8.9-0.8-12.7-2.5c-3.8-1.7-7.1-4-9.8-6.9l2.8-4.6c0.3-0.4,0.6-0.7,1-0.9c0.4-0.3,0.8-0.4,1.3-0.4
			c0.7,0,1.5,0.4,2.4,1.1c0.9,0.8,2,1.6,3.4,2.5s3,1.7,4.9,2.5s4.3,1.1,7.1,1.1c2.3,0,4.4-0.3,6.2-1c1.8-0.6,3.3-1.5,4.6-2.7
			c1.3-1.2,2.2-2.5,2.9-4.1c0.7-1.6,1-3.4,1-5.4c0-2.2-0.5-4-1.5-5.4s-2.3-2.6-3.9-3.5s-3.4-1.7-5.5-2.4c-2.1-0.7-4.2-1.3-6.3-2
			c-2.2-0.7-4.3-1.5-6.3-2.4c-2.1-0.9-3.9-2.1-5.5-3.5s-2.9-3.2-3.9-5.4c-1-2.2-1.5-4.8-1.5-8c0-2.5,0.5-5,1.5-7.4s2.4-4.5,4.3-6.3
			s4.2-3.3,7-4.4s5.9-1.7,9.5-1.7c4,0,7.7,0.6,11,1.9s6.2,3.1,8.7,5.5L401.6,12.3z"/>
		<path d="M427,73.9c-4,0-7.1-1.1-9.3-3.4c-2.2-2.2-3.2-5.5-3.2-9.7V29.6h-6.1c-0.5,0-1-0.2-1.4-0.5s-0.6-0.8-0.6-1.5V24l8.3-1.1
			l2.1-15.7c0.1-0.5,0.3-0.9,0.7-1.2c0.4-0.3,0.8-0.5,1.4-0.5h4.5v17.6H438v6.5h-14.6v30.6c0,2.1,0.5,3.7,1.6,4.8c1,1,2.4,1.6,4,1.6
			c0.9,0,1.8-0.1,2.4-0.4c0.7-0.3,1.3-0.5,1.8-0.8s0.9-0.6,1.3-0.8c0.4-0.3,0.7-0.4,0.9-0.4c0.5,0,0.9,0.3,1.3,0.9l2.6,4.3
			c-1.5,1.4-3.4,2.6-5.6,3.4C431.5,73.5,429.3,73.9,427,73.9z"/>
		<path d="M481.4,73.1h-4c-0.9,0-1.6-0.1-2.1-0.4s-0.9-0.8-1.1-1.7l-1-4.7c-1.3,1.2-2.6,2.3-3.9,3.2c-1.3,1-2.6,1.8-4,2.4
			c-1.4,0.7-2.9,1.1-4.5,1.5c-1.6,0.3-3.4,0.5-5.3,0.5c-2,0-3.8-0.3-5.6-0.8c-1.7-0.6-3.2-1.4-4.5-2.5s-2.3-2.5-3-4.2
			c-0.8-1.7-1.1-3.7-1.1-6c0-2,0.6-4,1.7-5.8c1.1-1.9,2.9-3.5,5.4-5c2.5-1.4,5.7-2.6,9.7-3.6c4-0.9,8.9-1.4,14.6-1.4v-4
			c0-4-0.8-7-2.5-9s-4.2-3.1-7.5-3.1c-2.2,0-4,0.3-5.5,0.8c-1.5,0.6-2.8,1.2-3.9,1.9c-1.1,0.7-2,1.3-2.8,1.9s-1.6,0.8-2.3,0.8
			c-0.6,0-1.1-0.2-1.6-0.5s-0.8-0.7-1.1-1.2l-1.6-2.9c2.8-2.7,5.9-4.7,9.1-6.1c3.3-1.3,6.9-2,10.8-2c2.8,0,5.4,0.5,7.6,1.4
			s4.1,2.2,5.6,3.9c1.5,1.7,2.6,3.7,3.4,6.1s1.2,5,1.2,7.8v32.7H481.4z M458.2,67.6c1.6,0,3-0.2,4.3-0.5s2.5-0.8,3.7-1.4
			s2.3-1.3,3.3-2.1c1.1-0.8,2.1-1.8,3.1-2.9V50.2c-4.1,0-7.6,0.3-10.5,0.8s-5.2,1.2-7,2s-3.1,1.8-3.9,3c-0.8,1.1-1.2,2.4-1.2,3.8
			c0,1.3,0.2,2.5,0.7,3.5c0.4,1,1,1.8,1.8,2.4c0.7,0.6,1.6,1.1,2.6,1.4C455.9,67.5,457,67.6,458.2,67.6z"/>
		<path d="M490,73.1V22.2h5.1c1,0,1.6,0.2,2,0.6s0.6,1,0.8,1.9l0.6,7.9c1.7-3.6,3.9-6.3,6.5-8.3s5.6-3,9-3c1.4,0,2.7,0.2,3.8,0.5
			s2.2,0.8,3.2,1.3l-1.2,6.7c-0.2,0.8-0.8,1.3-1.6,1.3c-0.5,0-1.2-0.2-2.2-0.5s-2.3-0.5-4.1-0.5c-3.1,0-5.7,0.9-7.8,2.7
			c-2.1,1.8-3.8,4.4-5.3,7.9v32.4H490z"/>
		<path d="M540.9,73.9c-4,0-7.1-1.1-9.3-3.4c-2.2-2.2-3.2-5.5-3.2-9.7V29.6h-6.1c-0.5,0-1-0.2-1.4-0.5s-0.6-0.8-0.6-1.5V24l8.3-1.1
			l2.1-15.7c0.1-0.5,0.3-0.9,0.7-1.2s0.8-0.5,1.4-0.5h4.5v17.6h14.6v6.5h-14.6v30.6c0,2.1,0.5,3.7,1.6,4.8c1,1,2.4,1.6,4,1.6
			c0.9,0,1.8-0.1,2.4-0.4c0.7-0.3,1.3-0.5,1.8-0.8s0.9-0.6,1.3-0.8c0.4-0.3,0.7-0.4,0.9-0.4c0.5,0,0.9,0.3,1.3,0.9l2.6,4.3
			c-1.5,1.4-3.4,2.6-5.6,3.4C545.5,73.5,543.2,73.9,540.9,73.9z"/>
		<path d="M578.1,21.3c3.1,0,5.9,0.5,8.4,1.5c2.6,1,4.8,2.5,6.7,4.4s3.3,4.3,4.4,7.1c1.1,2.8,1.6,6.1,1.6,9.7c0,1.4-0.2,2.3-0.5,2.8
			s-0.9,0.7-1.7,0.7h-33.9c0.1,3.2,0.5,6,1.3,8.4s1.9,4.4,3.3,6c1.4,1.6,3.1,2.8,5,3.6c1.9,0.8,4.1,1.2,6.5,1.2
			c2.2,0,4.2-0.3,5.8-0.8s3-1.1,4.2-1.7s2.2-1.2,2.9-1.7c0.8-0.5,1.5-0.8,2-0.8c0.7,0,1.3,0.3,1.7,0.9l2.5,3.3
			c-1.1,1.3-2.4,2.5-4,3.5c-1.5,1-3.2,1.8-5,2.4s-3.6,1.1-5.5,1.4s-3.7,0.5-5.6,0.5c-3.5,0-6.8-0.6-9.7-1.8c-3-1.2-5.5-2.9-7.7-5.2
			c-2.2-2.3-3.8-5.1-5.1-8.5c-1.2-3.4-1.8-7.3-1.8-11.7c0-3.6,0.5-6.9,1.6-10s2.7-5.8,4.7-8c2-2.3,4.5-4,7.5-5.3
			C571.1,22,574.4,21.3,578.1,21.3z M578.3,27.9c-4.3,0-7.7,1.2-10.2,3.7s-4,6-4.6,10.4h27.7c0-2.1-0.3-4-0.9-5.7
			c-0.6-1.7-1.4-3.2-2.5-4.5s-2.5-2.2-4-2.9C582.2,28.3,580.4,27.9,578.3,27.9z"/>
		<path d="M605.6,73.1V22.2h5.1c1,0,1.6,0.2,2,0.6s0.6,1,0.8,1.9l0.6,7.9c1.7-3.6,3.9-6.3,6.5-8.3s5.6-3,9-3c1.4,0,2.7,0.2,3.8,0.5
			s2.2,0.8,3.2,1.3l-1.2,6.7c-0.2,0.8-0.8,1.3-1.6,1.3c-0.5,0-1.2-0.2-2.2-0.5s-2.3-0.5-4.1-0.5c-3.1,0-5.7,0.9-7.8,2.7
			c-2.1,1.8-3.8,4.4-5.3,7.9v32.4H605.6z"/>
		<path d="M631.6,67.5c0-0.9,0.2-1.7,0.5-2.5s0.8-1.4,1.3-2c0.6-0.6,1.2-1,2-1.4c0.8-0.3,1.6-0.5,2.5-0.5s1.7,0.2,2.5,0.5
			s1.4,0.8,2,1.4s1,1.2,1.3,2s0.5,1.6,0.5,2.5s-0.2,1.7-0.5,2.5s-0.8,1.4-1.3,2c-0.6,0.6-1.2,1-2,1.3s-1.6,0.5-2.5,0.5
			s-1.7-0.2-2.5-0.5s-1.4-0.8-2-1.3c-0.6-0.6-1-1.2-1.3-2C631.7,69.3,631.6,68.4,631.6,67.5z"/>
	</g>
</g>
</svg>
