<?xml version="1.0" encoding="utf-8"?>
<!-- Generator: Adobe Illustrator 24.2.3, SVG Export Plug-In . SVG Version: 6.00 Build 0)  -->
<svg version="1.1" id="Layer_1" xmlns="http://www.w3.org/2000/svg" xmlns:xlink="http://www.w3.org/1999/xlink" x="0px" y="0px"
	 viewBox="0 0 842 1000" style="enable-background:new 0 0 842 1000;" xml:space="preserve">
<path d="M702,960c-54.2,52.6-114,44.4-171,19.6c-60.6-25.3-116-26.9-180,0C271.3,1014,229,1004,181,960C-90,681-50,256,258,240
	c74.7,4,127,41.3,171,44.4c65.4-13.3,128-51.4,198-46.4c84.1,6.8,147,40,189,99.7c-173,104-132,332,26.9,396
	c-31.8,83.5-72.6,166-141,227L702,960z M423,237C414.9,113,515.4,11,631,1C646.9,144,501,251,423,237z"/>
</svg>
