<?xml version="1.0" encoding="utf-8"?>
<!-- Generator: Adobe Illustrator 24.2.3, SVG Export Plug-In . SVG Version: 6.00 Build 0)  -->
<svg version="1.1"
	 id="svg3794" xmlns:cc="http://creativecommons.org/ns#" xmlns:dc="http://purl.org/dc/elements/1.1/" xmlns:rdf="http://www.w3.org/1999/02/22-rdf-syntax-ns#" xmlns:svg="http://www.w3.org/2000/svg"
	 xmlns="http://www.w3.org/2000/svg" xmlns:xlink="http://www.w3.org/1999/xlink" x="0px" y="0px" viewBox="0 0 300 300"
	 style="enable-background:new 0 0 300 300;" xml:space="preserve">
<style type="text/css">
	.st0{fill:#007DB8;}
</style>
<g id="layer1" transform="translate(-318.33375,-439.74274)">
	<g id="g3460" transform="matrix(4.579965,0,0,-4.579965,468.34291,456.8459)">
		<path id="path3462" class="st0" d="M0,0c-8,0-15.3-3.2-20.5-8.5C-25.8-13.7-29-21-29-29c0-8,3.2-15.3,8.5-20.5
			C-15.3-54.8-8-58,0-58c8,0,15.3,3.3,20.5,8.5C25.8-44.3,29-37,29-29c0,8-3.2,15.3-8.5,20.5C15.3-3.2,8,0,0,0 M0,3.5
			c18,0,32.5-14.6,32.5-32.5C32.5-47,18-61.5,0-61.5C-18-61.5-32.5-47-32.5-29C-32.5-11.1-18,3.5,0,3.5"/>
	</g>
	<g id="g3464" transform="matrix(4.579965,0,0,-4.579965,397.87238,588.54693)">
		<path id="path3466" class="st0" d="M0,0c0,1.9-1.3,3-3,3h-1.1V-3h1.1C-1.4-3,0-2.1,0,0 M19.4-2.1l-8-6.3L4-2.7C3-5.2,0.4-7-2.5-7
			h-6.3V7h6.3C0.7,7,3.1,4.9,4,2.7l7.3,5.8l2.7-2.1L7.4,1l1.3-1l6.7,5.3l2.7-2.1l-6.7-5.3l1.3-1l6.7,5.3V7h4.9v-9.9h4.9V-7h-9.8
			C19.4-7,19.4-2.1,19.4-2.1z M35.3-2.9h4.9V-7h-9.8V7h4.9V-2.9z"/>
	</g>
</g>
</svg>
