<?xml version="1.0" encoding="utf-8"?>
<!-- Generator: Adobe Illustrator 24.2.3, SVG Export Plug-In . SVG Version: 6.00 Build 0)  -->
<svg version="1.1"
	 id="svg3009" inkscape:version="0.48.2 r9819" sodipodi:docname="c02716792.pdf" xmlns:cc="http://creativecommons.org/ns#" xmlns:dc="http://purl.org/dc/elements/1.1/" xmlns:inkscape="http://www.inkscape.org/namespaces/inkscape" xmlns:rdf="http://www.w3.org/1999/02/22-rdf-syntax-ns#" xmlns:sodipodi="http://sodipodi.sourceforge.net/DTD/sodipodi-0.dtd" xmlns:svg="http://www.w3.org/2000/svg"
	 xmlns="http://www.w3.org/2000/svg" xmlns:xlink="http://www.w3.org/1999/xlink" x="0px" y="0px" viewBox="0 0 100 100"
	 style="enable-background:new 0 0 100 100;" xml:space="preserve">
<style type="text/css">
	.st0{fill:#0096D6;}
</style>
<g>
	<g id="g3021" transform="translate(106.93201,508.32201)">
		<path id="path3023" inkscape:connector-curvature="0" class="st0" d="M-7-458.3c0-27.6-22.3-49.9-49.9-49.9c-0.8,0-1.5,0-2.2,0.1
			l-10.2,28.1h8.9c5.3,0,8.1,4.1,6.3,9l-12.6,34.6l-10.6,0l13.5-37.1h-7.9l-13.5,37.1h-10.6l15.9-43.6h0l9.6-26.3
			c-21,5.9-36.4,25.2-36.4,48.1c0,23.6,16.3,43.3,38.3,48.5l9.3-25.4h0l16.3-44.9h19.5c5.3,0,8.1,4.1,6.3,9l-11.1,30.4
			c-0.8,2.3-3.5,4.2-6,4.2h-14l-10.2,28c0.5,0,1,0,1.5,0C-29.4-408.4-7-430.8-7-458.3"/>
	</g>
	<g id="g3025" transform="translate(96.546997,516.36501)">
		<path id="path3027" inkscape:connector-curvature="0" class="st0" d="M-16.4-481.6h-7.9l-11.1,30.5h7.9L-16.4-481.6"/>
	</g>
</g>
</svg>
