<?xml version="1.0" encoding="utf-8"?>
<!-- Generator: Adobe Illustrator 24.2.3, SVG Export Plug-In . SVG Version: 6.00 Build 0)  -->
<svg version="1.1" id="Layer_1" xmlns="http://www.w3.org/2000/svg" xmlns:xlink="http://www.w3.org/1999/xlink" x="0px" y="0px"
	 viewBox="0 0 176.1 77.2" style="enable-background:new 0 0 176.1 77.2;" xml:space="preserve">
<style type="text/css">
	.st0{fill:#A50034;}
	.st1{fill:#FFFFFF;}
	.st2{fill:#6B6B6B;}
</style>
<g>
	<path class="st0" d="M38.7,77.2C60,77.2,77.3,60,77.3,38.6C77.3,17.3,60,0,38.7,0C17.3,0,0,17.3,0,38.6C0,60,17.3,77.2,38.7,77.2"
		/>
	<polygon class="st1" points="37.1,21.7 37.1,55.6 47.9,55.6 47.9,52.5 40.2,52.5 40.2,21.7 	"/>
	<path class="st1" d="M26.3,30.9c2.6,0,4.6-2.1,4.6-4.6c0-2.5-2.1-4.6-4.6-4.6s-4.6,2.1-4.6,4.6S23.7,30.9,26.3,30.9"/>
	<path class="st1" d="M40.2,6.3c-0.4,0-1.2,0-1.5,0C20.8,6.3,6.3,20.8,6.3,38.6c0,8.7,3.4,16.8,9.5,22.9c6.1,6.1,14.2,9.5,22.9,9.5
		c8.6,0,16.7-3.4,22.9-9.5c6.1-6.1,9.5-14.2,9.5-22.9v-1.4h-1.3H47.9v3h20c0,0.1,0,0.4,0,0.5c-1,15.2-13.7,27.3-29.2,27.3
		c-7.8,0-15.2-3.1-20.7-8.6c-5.6-5.5-8.6-12.9-8.6-20.7c0-7.8,3.1-15.2,8.6-20.7c5.5-5.5,12.9-8.6,20.7-8.6c0.3,0,1.2,0,1.5,0V6.3z"
		/>
	<path class="st2" d="M106.4,13H94.8v50.3h35.7v-9.8h-24.1C106.4,53.5,106.4,13,106.4,13z M156,44.1h9.5v8.8
		c-1.7,0.7-5.1,1.3-8.4,1.3c-10.5,0-13.9-5.3-13.9-16.1c0-10.3,3.3-16.3,13.8-16.3c5.8,0,9.1,1.8,11.9,5.3l7.2-6.6
		c-4.4-6.3-12.1-8.2-19.3-8.2c-16.3,0-24.8,8.9-24.8,25.8c0,16.8,7.7,26,24.7,26c7.8,0,15.4-2,19.6-4.9V34.7H156V44.1z"/>
</g>
</svg>
