<?xml version="1.0" encoding="utf-8"?>
<!-- Generator: Adobe Illustrator 22.0.0, SVG Export Plug-In . SVG Version: 6.00 Build 0)  -->
<svg version="1.1" id="Layer_1" xmlns="http://www.w3.org/2000/svg" xmlns:xlink="http://www.w3.org/1999/xlink" x="0px" y="0px"
	 viewBox="0 0 1000 1000" style="enable-background:new 0 0 1000 1000;" xml:space="preserve">
<style type="text/css">
	.st0{fill:#999999;}
</style>
<path class="st0" d="M766.1,166.7c-4.1,6.8-8.1,12.2-13.6,14.9c-4.1,4.1-10.9,5.4-17.6,5.4c-8.1,0-16.3-4.1-27.2-12.2
	c-10.9-8.1-23.1-16.3-39.4-25.8c-16.3-9.5-33.9-17.6-57-25.8c-21.7-8.1-48.9-12.2-80.1-12.2c-29.9,0-55.7,4.1-78.7,12.2
	c-23.1,8.1-42.1,19-57,32.6s-27.2,29.9-33.9,47.5c-8.1,19-12.2,38-12.2,59.7c0,27.2,6.8,50.2,20.4,67.9
	c13.6,17.6,31.2,33.9,52.9,46.2c21.7,12.2,47.5,24.4,74.7,32.6c28.5,9.5,57,19,85.5,28.5c29.9,9.5,58.4,21.7,85.5,33.9
	c28.5,12.2,52.9,28.5,74.7,47.5s39.4,42.1,52.9,70.6c13.6,27.2,20.4,62.4,20.4,101.8c0,43.4-6.8,82.8-21.7,120.8
	c-14.9,38-35.3,70.6-63.8,97.7s-62.4,50.2-103.2,65.2c-40.7,16.3-86.9,24.4-138.5,24.4c-63.8,0-120.8-10.9-172.4-33.9
	c-51.6-23.1-96.4-54.3-133-93.7l38-62.4c4.1-5.4,8.1-9.5,13.6-12.2c5.4-4.1,10.9-5.4,17.6-5.4c9.5,0,20.4,5.4,32.6,14.9
	c12.2,10.9,27.2,21.7,46.2,33.9c19,12.2,40.7,23.1,66.5,33.9c25.8,10.9,58.4,14.9,96.4,14.9c31.2,0,59.7-4.1,84.2-13.6
	c24.4-8.1,44.8-20.4,62.4-36.7c17.6-16.3,29.9-33.9,39.4-55.7c9.5-21.7,13.6-46.2,13.6-73.3c0-29.9-6.8-54.3-20.4-73.3
	s-31.2-35.3-52.9-47.5s-46.2-23.1-74.7-32.6c-28.5-9.5-57-17.6-85.5-27.2c-29.9-9.5-58.4-20.4-85.5-32.6
	c-28.5-12.2-52.9-28.5-74.7-47.5c-21.7-19-39.4-43.4-52.9-73.3c-13.6-29.9-20.4-65.2-20.4-108.6c0-33.9,6.8-67.9,20.4-100.5
	s32.6-61.1,58.4-85.5c25.8-24.4,57-44.8,95-59.7S481-0.3,529.9-0.3c54.3,0,104.5,8.1,149.3,25.8s84.2,42.1,118.1,74.7L766.1,166.7z"
	/>
</svg>
